# xmcd
#
# Track frame offsets: 
#        150
#        17377
#        33746
#        51827
#        66804
#        86296
#        91165
#        106743
#        125718
#        136837
#        158488
#        174340
#
# Disc length: 2771 seconds
#
# Revision: 0
# Processed by: cddbd v1.5.2PL0 Copyright (c) Steve Scherf et al.
# Submitted via: ExactAudioCopy v0.90b4
#
DISCID=890ad10c
DTITLE=Deadwood Revival - This Old World
DYEAR=2006
DGENRE=Bluegrass
TTITLE0=Bound To Go
TTITLE1=Ain't the Buyin' Kind
TTITLE2=Secret
TTITLE3=Roscoe Stomp
TTITLE4=Lucky Day
TTITLE5=Down to the Wire
TTITLE6=Shake The Barnhouse Down
TTITLE7=The Old Barn
TTITLE8=Fully Saved Today
TTITLE9=The Farmer Is The Man
TTITLE10=Sandy Boys
TTITLE11=You Ain't Goin' Nowhere
EXTD=
EXTT0=
EXTT1=
EXTT2=
EXTT3=
EXTT4=
EXTT5=
EXTT6=
EXTT7=
EXTT8=
EXTT9=
EXTT10=
EXTT11=
PLAYORDER=
